<svg width="497" height="444" viewBox="0 0 497 444" fill="none" xmlns="http://www.w3.org/2000/svg" stroke="currentColor">
<path d="M248.367 311.112C377.252 311.112 481.734 271.219 481.734 222.008C481.734 172.797 377.252 132.904 248.367 132.904C119.482 132.904 15 172.797 15 222.008C15 271.219 119.482 311.112 248.367 311.112Z" stroke="#1E1A19" stroke-width="29.3913"/>
<path d="M171.188 266.55C235.631 378.168 322.42 448.705 365.038 424.1C407.655 399.494 389.963 289.064 325.52 177.446C261.078 65.8285 174.288 -4.709 131.671 19.8963C89.053 44.5016 106.746 154.932 171.188 266.55Z" stroke="#1E1A19" stroke-width="29.3913"/>
<path d="M171.188 177.45C106.746 289.068 89.053 399.498 131.671 424.104C174.288 448.709 261.078 378.171 325.52 266.554C389.963 154.936 407.655 44.5055 365.038 19.9002C322.42 -4.70511 235.631 65.8324 171.188 177.45Z" stroke="#1E1A19" stroke-width="29.3913"/>
<path d="M248.351 265.49C272.371 265.49 291.843 246.018 291.843 221.999C291.843 197.979 272.371 178.508 248.351 178.508C224.332 178.508 204.86 197.979 204.86 221.999C204.86 246.018 224.332 265.49 248.351 265.49Z" fill="#1E1A19"/>
</svg>
