<svg width="375" height="451" viewBox="0 0 375 451" fill="currentColor" xmlns="http://www.w3.org/2000/svg">
<path fill-rule="evenodd" clip-rule="evenodd" d="M166.698 19.9219C226.308 -17.9075 309.227 -0.330192 350.878 59.6619C371.13 87.5564 379.155 122.711 372.659 157.101C369.984 173.15 363.87 188.435 354.699 202.191C368.073 227.028 372.276 255.687 367.309 283.582C361.577 316.826 341.707 346.248 313.049 364.208L207.967 431.078C148.357 468.908 65.8199 451.33 23.7872 391.338C3.91725 363.444 -4.10717 328.289 2.00668 294.281C4.68148 278.232 10.7953 262.947 19.9661 249.191C6.59206 224.354 2.38879 195.695 7.35629 167.801C13.088 134.557 32.958 105.134 61.6167 87.1742L166.698 19.9219ZM66.9647 363.827C86.8347 392.486 122.371 405.86 156.38 397.071C164.022 394.778 171.282 391.721 177.778 387.518L282.86 320.648C300.055 309.949 312.283 291.989 315.722 272.119C319.161 251.485 314.575 230.469 302.348 213.656C282.478 184.997 246.941 171.623 212.933 180.412C205.29 182.704 198.03 185.761 191.534 189.965L151.412 215.566C149.502 216.713 147.209 217.477 144.916 218.241C134.599 220.916 123.9 217.095 117.786 208.306C114.347 203.339 112.819 196.843 113.965 190.729C115.111 184.615 118.55 179.647 123.9 176.208L228.6 109.338C230.51 108.192 232.803 107.428 235.095 106.663C245.413 103.989 256.112 107.81 262.226 116.598C265.283 121.184 266.811 126.916 266.429 132.265L266.047 136.086L269.868 137.233C284.77 141.818 298.527 148.696 311.136 157.867L316.486 161.688L318.397 155.574C319.543 152.135 320.307 149.078 321.071 145.639C324.51 125.005 319.925 103.989 307.697 87.1755C287.827 58.5169 252.291 45.1429 218.282 53.9315C210.64 56.2242 203.38 59.2811 196.884 63.4844L91.8022 130.355C74.607 141.054 62.3793 159.013 58.9403 178.883C55.1191 199.517 60.0866 220.534 71.9322 237.347C91.8022 266.005 127.339 279.38 161.347 270.591C168.99 268.68 176.25 265.623 182.746 261.42L222.868 235.818C224.778 234.672 227.071 233.908 229.364 233.144C239.681 230.469 250.38 234.29 256.494 243.079C259.933 248.046 261.461 254.542 260.315 260.656C259.169 266.77 255.73 271.737 250.38 275.176L145.68 342.046C143.77 343.193 141.477 343.957 139.185 344.721L139.185 344.721C128.867 347.396 118.168 343.193 112.054 334.404C108.997 329.819 107.469 324.087 107.851 318.737L108.233 314.916L104.412 313.77C89.5095 309.185 75.7534 302.306 63.1436 293.136L57.794 289.315L55.8834 295.428C55.5013 297.148 55.1191 298.772 54.737 300.396C54.3549 302.02 53.9728 303.644 53.5907 305.363C50.1516 325.998 54.737 347.014 66.9647 363.827Z" fill="#1E1A19"/>
</svg>
