<svg width="494" height="296" viewBox="0 0 494 296" fill="currentColor" xmlns="http://www.w3.org/2000/svg">
<mask id="mask0_473_218" style="mask-type:luminance" maskUnits="userSpaceOnUse" x="0" y="0" width="494" height="296">
<path d="M0 0H493.154V295.892H0V0Z" fill="white"/>
</mask>
<g mask="url(#mask0_473_218)">
<path fill-rule="evenodd" clip-rule="evenodd" d="M246.577 0C180.823 0 139.727 32.8769 123.288 98.6307C147.946 65.7538 176.713 53.425 209.59 61.6442C228.348 66.3292 241.755 79.9457 256.595 95.0051C280.769 119.544 308.751 147.946 369.865 147.946C435.619 147.946 476.715 115.069 493.154 49.3154C468.496 82.1923 439.729 94.5211 406.852 86.3019C388.094 81.6169 374.687 68.0004 359.847 52.941C335.673 28.402 307.691 0 246.577 0ZM123.288 147.946C57.5346 147.946 16.4385 180.823 0 246.577C24.6577 213.7 53.425 201.371 86.3019 209.59C105.06 214.284 118.466 227.892 133.307 242.951C157.48 267.49 185.462 295.892 246.577 295.892C312.331 295.892 353.427 263.015 369.865 197.261C345.208 230.138 316.44 242.467 283.563 234.248C264.805 229.563 251.399 215.946 236.558 200.887C212.385 176.348 184.403 147.946 123.288 147.946Z" fill="#1E1A19"/>
</g>
</svg>
