<svg width="382" height="482" viewBox="0 0 382 482" fill="none" xmlns="http://www.w3.org/2000/svg">
<path d="M124.156 410.121C102.404 390.236 96.0531 348.456 105.116 318.188C120.831 337.271 142.604 343.317 165.157 346.729C199.974 351.995 234.167 350.026 266.511 334.112C270.211 332.29 273.63 329.867 277.673 327.414C280.708 336.218 281.498 345.107 280.438 354.154C277.86 376.187 266.895 393.207 249.456 406.108C242.482 411.269 235.103 415.882 227.9 420.747C205.774 435.703 199.787 453.239 208.101 478.745C208.299 479.37 208.476 479.991 208.923 481.508C197.625 476.45 189.373 469.088 183.085 459.408C176.444 449.194 173.284 437.894 173.118 425.666C173.035 419.716 173.035 413.712 172.235 407.846C170.281 393.544 163.567 387.14 150.919 386.771C137.938 386.393 127.669 394.418 124.946 407.056C124.738 408.025 124.437 408.983 124.135 410.11L124.156 410.121Z" fill="#1E1A19"/>
<path d="M0 313.145C0 313.145 64.4137 281.767 129.007 281.767L177.709 131.044C179.532 123.755 184.856 118.802 190.866 118.802C196.876 118.802 202.2 123.755 204.023 131.044L252.725 281.767C329.226 281.767 381.732 313.145 381.732 313.145C381.732 313.145 272.32 15.0858 272.106 14.4877C268.966 5.6755 263.665 0 256.518 0H125.226C118.079 0 112.991 5.6755 109.637 14.4877C109.401 15.0745 0 313.145 0 313.145Z" fill="#1E1A19"/>
</svg>
